<?xml version="1.0" encoding="UTF-8" standalone="no"?>
<!DOCTYPE svg PUBLIC "-//W3C//DTD SVG 1.1//EN" "http://www.w3.org/Graphics/SVG/1.1/DTD/svg11.dtd">
<!-- Created with Vectornator (http://vectornator.io/) -->
<svg height="100%" stroke-miterlimit="10" style="fill-rule:nonzero;clip-rule:evenodd;stroke-linecap:round;stroke-linejoin:round;" version="1.1" viewBox="0 0 2981.43 463.058" width="100%" xml:space="preserve" xmlns="http://www.w3.org/2000/svg" xmlns:vectornator="http://vectornator.io" xmlns:xlink="http://www.w3.org/1999/xlink">
<defs/>
<g id="Layer-1" vectornator:layerName="Layer 1">
<g opacity="1">
<path d="M825.502 5.51668L774.642 210.095L735.999 210.095L702.471 75.4143L668.943 210.095L628.595 210.095L577.735 5.51668L621.492 5.51668L649.337 154.973L686.275 5.51668L718.667 5.51668L755.605 154.973L783.45 5.51668L825.502 5.51668Z" fill="#ffffff" fill-rule="nonzero" opacity="1" stroke="none"/>
<path d="M941.998 164.065L875.794 164.065L862.156 210.095L819.819 210.095L885.739 5.51668L933.474 5.51668L999.394 210.095L955.353 210.095L941.998 164.065ZM930.917 125.422L909.322 50.4103L887.16 125.422L930.917 125.422Z" fill="#ffffff" fill-rule="nonzero" opacity="1" stroke="none"/>
<path d="M1140.04 5.51668L1140.04 43.591L1086.62 43.591L1086.62 210.095L1045.71 210.095L1045.71 43.591L992.29 43.591L992.29 5.51668L1140.04 5.51668Z" fill="#ffffff" fill-rule="nonzero" opacity="1" stroke="none"/>
<path d="M1169.59 210.095L1169.59 5.51668L1303.42 5.51668L1303.42 44.1593L1210.51 44.1593L1210.51 86.2115L1285.8 86.2115L1285.8 124.854L1210.51 124.854L1210.51 171.453L1303.42 171.453L1303.42 210.095L1169.59 210.095Z" fill="#ffffff" fill-rule="nonzero" opacity="1" stroke="none"/>
<path d="M1456.29 132.526L1490.38 210.095L1446.34 210.095L1413.38 134.231L1380.42 134.231L1380.42 210.095L1339.51 210.095L1339.51 5.51668L1443.78 5.51668C1455.72 5.51668 1465.43 9.25781 1472.91 16.7401C1480.39 24.2223 1484.13 33.9304 1484.13 45.8641L1484.13 93.8832C1484.13 103.544 1481.62 111.784 1476.6 118.603C1471.58 125.422 1464.81 130.063 1456.29 132.526ZM1443.22 86.4956L1443.22 53.8199C1443.22 47.3795 1440 44.1593 1433.55 44.1593L1380.42 44.1593L1380.42 96.1563L1433.55 96.1563C1440 96.1563 1443.22 92.9361 1443.22 86.4956Z" fill="#ffffff" fill-rule="nonzero" opacity="1" stroke="none"/>
<path d="M1640.41 210.095L1593.24 121.16L1564.54 157.814L1564.54 210.095L1524.19 210.095L1524.19 5.51668L1564.54 5.51668L1564.54 101.555L1635.29 5.51668L1683.31 5.51668L1620.52 86.2115L1686.44 210.095L1640.41 210.095Z" fill="#ffffff" fill-rule="nonzero" opacity="1" stroke="none"/>
<path d="M1740.71 4.38013L1809.18 4.38013C1821.12 4.38013 1830.83 8.12127 1838.31 15.6035C1845.79 23.0858 1849.53 32.7938 1849.53 44.7275L1849.53 170.884C1849.53 182.818 1845.79 192.526 1838.31 200.008C1830.83 207.491 1821.12 211.232 1809.18 211.232L1740.71 211.232C1728.77 211.232 1719.06 207.491 1711.58 200.008C1704.1 192.526 1700.36 182.818 1700.36 170.884L1700.36 44.7275C1700.36 32.7938 1704.1 23.0858 1711.58 15.6035C1719.06 8.12127 1728.77 4.38013 1740.71 4.38013ZM1808.62 162.928L1808.62 52.6834C1808.62 46.2429 1805.39 43.0227 1798.95 43.0227L1750.94 43.0227C1744.5 43.0227 1741.27 46.2429 1741.27 52.6834L1741.27 162.928C1741.27 169.369 1744.5 172.589 1750.94 172.589L1798.95 172.589C1805.39 172.589 1808.62 169.369 1808.62 162.928Z" fill="#ffffff" fill-rule="nonzero" opacity="1" stroke="none"/>
<path d="M2018.59 5.51668L2018.59 43.591L1965.17 43.591L1965.17 210.095L1924.26 210.095L1924.26 43.591L1870.84 43.591L1870.84 5.51668L2018.59 5.51668Z" fill="#ffffff" fill-rule="nonzero" opacity="1" stroke="none"/>
<path d="M2182.25 5.51668L2182.25 43.591L2128.84 43.591L2128.84 210.095L2087.92 210.095L2087.92 43.591L2034.5 43.591L2034.5 5.51668L2182.25 5.51668Z" fill="#ffffff" fill-rule="nonzero" opacity="1" stroke="none"/>
<path d="M2211.81 210.095L2211.81 5.51668L2345.63 5.51668L2345.63 44.1593L2252.72 44.1593L2252.72 86.2115L2328.02 86.2115L2328.02 124.854L2252.72 124.854L2252.72 171.453L2345.63 171.453L2345.63 210.095L2211.81 210.095Z" fill="#ffffff" fill-rule="nonzero" opacity="1" stroke="none"/>
</g>
<g opacity="1">
<path d="M786.682 454.971L786.682 250.392L893.233 250.392C905.167 250.392 914.875 254.133 922.357 261.616C929.84 269.098 933.581 278.806 933.581 290.74L933.581 414.623C933.581 426.557 929.84 436.265 922.357 443.747C914.875 451.23 905.167 454.971 893.233 454.971L786.682 454.971ZM827.598 289.035L827.598 416.328L883.004 416.328C889.445 416.328 892.665 413.108 892.665 406.667L892.665 298.695C892.665 292.255 889.445 289.035 883.004 289.035L827.598 289.035Z" fill="#ffffff" fill-rule="nonzero" opacity="1" stroke="none"/>
<path d="M973.644 454.971L973.644 250.392L1107.47 250.392L1107.47 289.035L1014.56 289.035L1014.56 331.087L1089.86 331.087L1089.86 369.73L1014.56 369.73L1014.56 416.328L1107.47 416.328L1107.47 454.971L973.644 454.971Z" fill="#ffffff" fill-rule="nonzero" opacity="1" stroke="none"/>
<path d="M1275.97 250.392L1275.97 288.467L1222.55 288.467L1222.55 454.971L1181.63 454.971L1181.63 288.467L1128.21 288.467L1128.21 250.392L1275.97 250.392Z" fill="#ffffff" fill-rule="nonzero" opacity="1" stroke="none"/>
<path d="M1391.04 408.941L1324.84 408.941L1311.2 454.971L1268.86 454.971L1334.78 250.392L1382.52 250.392L1448.44 454.971L1404.4 454.971L1391.04 408.941ZM1379.96 370.298L1358.37 295.286L1336.2 370.298L1379.96 370.298Z" fill="#ffffff" fill-rule="nonzero" opacity="1" stroke="none"/>
<path d="M1516.35 454.971L1475.43 454.971L1475.43 250.392L1516.35 250.392L1516.35 454.971Z" fill="#ffffff" fill-rule="nonzero" opacity="1" stroke="none"/>
<path d="M1561.24 454.971L1561.24 250.392L1602.15 250.392L1602.15 416.328L1687.96 416.328L1687.96 454.971L1561.24 454.971Z" fill="#ffffff" fill-rule="nonzero" opacity="1" stroke="none"/>
<path d="M1759.85 454.971L1718.93 454.971L1718.93 250.392L1759.85 250.392L1759.85 454.971Z" fill="#ffffff" fill-rule="nonzero" opacity="1" stroke="none"/>
<path d="M1924.08 389.903L1924.08 250.392L1962.44 250.392L1962.44 454.971L1918.4 454.971L1843.1 315.46L1843.1 454.971L1804.74 454.971L1804.74 250.392L1848.79 250.392L1924.08 389.903Z" fill="#ffffff" fill-rule="nonzero" opacity="1" stroke="none"/>
<path d="M2150.54 316.312L2109.62 316.312L2109.62 297.559C2109.62 291.118 2106.4 287.898 2099.96 287.898L2053.08 287.898C2046.64 287.898 2043.42 291.118 2043.42 297.559L2043.42 407.804C2043.42 414.244 2046.64 417.465 2053.08 417.465L2099.96 417.465C2106.4 417.465 2109.62 414.244 2109.62 407.804L2109.62 377.401L2072.12 377.401L2072.12 340.464L2150.54 340.464L2150.54 415.76C2150.54 427.694 2146.8 437.402 2139.31 444.884C2131.83 452.366 2122.12 456.107 2110.19 456.107L2042.85 456.107C2030.92 456.107 2021.21 452.366 2013.73 444.884C2006.24 437.402 2002.5 427.694 2002.5 415.76L2002.5 289.603C2002.5 277.669 2006.24 267.961 2013.73 260.479C2021.21 252.997 2030.92 249.256 2042.85 249.256L2110.19 249.256C2122.12 249.256 2131.83 252.997 2139.31 260.479C2146.8 267.961 2150.54 277.669 2150.54 289.603L2150.54 316.312Z" fill="#ffffff" fill-rule="nonzero" opacity="1" stroke="none"/>
</g>
<path d="M2507.76 63.3183L2462.78 153.236L2904.73 153.236L2975.35 67.5212L2975.35 63.3183L2507.76 63.3183ZM2446.14 186.444L2401.15 276.362L2803.21 276.362L2873.77 190.765L2873.77 186.444L2446.14 186.444ZM2383.04 312.53L2338.05 402.447L2699.26 402.447L2769.47 317.266L2769.47 312.53L2383.04 312.53Z" fill="#ffffff" fill-rule="nonzero" opacity="1" stroke="none"/>
<path d="M470.971 63.3183L515.959 153.236L74.008 153.236L3.38823 67.5212L3.38823 63.3183L470.971 63.3183ZM532.593 186.444L577.581 276.362L175.528 276.362L104.967 190.765L104.967 186.444L532.593 186.444ZM595.695 312.53L640.683 402.447L279.474 402.447L209.269 317.266L209.269 312.53L595.695 312.53Z" fill="#ffffff" fill-rule="nonzero" opacity="1" stroke="none"/>
</g>
</svg>
