<?xml version="1.0" encoding="utf-8"?>
<!-- Generator: Adobe Illustrator 27.1.1, SVG Export Plug-In . SVG Version: 6.00 Build 0)  -->
<svg version="1.1" id="Layer_1" xmlns="http://www.w3.org/2000/svg" xmlns:xlink="http://www.w3.org/1999/xlink" x="0px" y="0px"
	 viewBox="0 0 512 512" style="enable-background: new 0 0 512 512" xml:space="preserve">
<style type="text/css">
	.st0{fill:#D9083C;}
</style>
<path class="st0" d="M 118 72.5 L 96.3 131.4 h 243.3 l -21.6 -58.9 c -3.7 -10.1 -13.7 -16.9 -25 -16.9 H 143 C 131.7 55.6 121.7 62.4 118 72.5 z M 38.8 135.2 L 67.9 55.8 C 79.1 25.4 109.2 5 143 5 h 150.1 c 33.8 0 63.8 20.4 75 50.8 l 29.2 79.4 c 19.2 7.6 32.8 25.7 32.8 46.8 v 113.8 v 37.9 c 0 14 -11.8 25.3 -26.5 25.3 h -26.5 c -14.7 0 -26.5 -11.3 -26.5 -25.3 v -37.9 H 85.5 v 37.9 c 0 14 -11.8 25.3 -26.5 25.3 H 32.5 c -14.7 0 -26.5 -11.3 -26.5 -25.3 v -37.9 V 182 C 6 160.9 19.6 142.8 38.8 135.2 z M 112 207.3 c 0 -14 -11.8 -25.3 -26.5 -25.3 s -26.5 11.3 -26.5 25.3 s 11.8 25.3 26.5 25.3 S 112 221.3 112 207.3 z M 350.5 232.6 c 14.7 0 26.5 -11.3 26.5 -25.3 s -11.8 -25.3 -26.5 -25.3 s -26.5 11.3 -26.5 25.3 S 335.8 232.6 350.5 232.6 z"/>
</svg>
