<?xml version="1.0" encoding="utf-8"?>
<!-- Generator: Adobe Illustrator 27.1.1, SVG Export Plug-In . SVG Version: 6.00 Build 0)  -->
<svg version="1.1" id="Layer_1" xmlns="http://www.w3.org/2000/svg" xmlns:xlink="http://www.w3.org/1999/xlink" x="0px" y="0px"
	 viewBox="0 0 512 512" style="enable-background: new 0 0 512 512" xml:space="preserve">
<style type="text/css">
	.st0{fill:#D9083C;}
</style>
<path class="st0" d="M 63.4 8.4 c -7.4 -5.8 -17.8 -5.1 -24.5 1.6 L 7.9 41.2 c -6.6 6.6 -7.3 17.2 -1.6 24.7 l 62.1 81.3 c 3.5 4.6 9 7.3 14.7 7.3 H 125 l 84.6 85.2 c -11.4 22.7 -7.8 51.1 11.1 70 l 86.9 87.5 c 9.7 9.8 25.4 9.8 35.1 0 l 49.7 -50 c 9.7 -9.8 9.7 -25.6 0 -35.4 l -86.9 -87.5 c -18.8 -18.9 -47 -22.7 -69.5 -11.2 L 151.4 128 v -42.2 c 0 -5.9 -2.7 -11.3 -7.3 -14.9 L 63.4 8.4 z M 17.9 314.1 C 8 324 2.5 337.5 2.5 351.6 C 2.5 380.9 26 404.7 55.1 404.7 c 14 0 27.4 -5.6 37.2 -15.6 l 91.4 -92.1 c -6.1 -16.3 -7 -34.1 -2.8 -50.9 l -47.9 -48.2 L 17.9 314.1 z M 399.7 117 c 0 -8.2 -0.9 -16.2 -2.5 -23.8 c -1.9 -8.8 -12.5 -11 -18.8 -4.7 l -49.6 49.9 c -2.3 2.3 -5.5 3.7 -8.8 3.7 H 275.6 c -6.8 0 -12.4 -5.6 -12.4 -12.5 v -44.9 c 0 -3.3 1.3 -6.5 3.6 -8.8 l 49.6 -49.9 c 6.3 -6.3 4 -17 -4.7 -18.9 C 304 5.3 296.1 4.5 288 4.5 c -61.7 0 -111.7 50.4 -111.7 112.6 v 0.6 l 66.2 66.7 c 27.9 -7.1 58.8 0.4 80.7 22.4 l 12.2 12.3 C 373.3 201.1 399.7 162.1 399.7 117 z M 83.1 342.1 c 0 10.4 -8.3 18.8 -18.6 18.8 s -18.6 -8.4 -18.6 -18.8 s 8.3 -18.8 18.6 -18.8 S 83.1 331.7 83.1 342.1 z"/>
</svg>
