<?xml version="1.0" encoding="utf-8"?>
<!-- Generator: Adobe Illustrator 27.1.1, SVG Export Plug-In . SVG Version: 6.00 Build 0)  -->
<svg version="1.1" id="Layer_1" xmlns="http://www.w3.org/2000/svg" xmlns:xlink="http://www.w3.org/1999/xlink" x="0px" y="0px"
	 viewBox="0 0 512 512" style="enable-background: new 0 0 512 512" xml:space="preserve">
<style type="text/css">
	.st0{fill:#D9083C;}
</style>
<path class="st0" d="M 182.9 84.5 c 22.7 0 41.1 -17.8 41.1 -39.8 S 205.6 5 182.9 5 s -41.1 17.8 -41.1 39.8 S 160.3 84.5 182.9 84.5 z M 278.8 217 c 30.2 0 54.8 -23.8 54.8 -53 s -24.6 -53 -54.8 -53 s -54.8 23.8 -54.8 53 S 248.6 217 278.8 217 z M 360.9 31.5 c 0 -14.7 -12.2 -26.5 -27.4 -26.5 s -27.4 11.8 -27.4 26.5 s 12.2 26.5 27.4 26.5 S 360.9 46.2 360.9 31.5 z M 360.9 164 c 0 22.9 -10 43.5 -26 58.1 c 31.2 11.3 53.4 40.3 53.4 74.4 c 0 43.9 -36.8 79.5 -82.1 79.5 H 141.9 c -45.3 0 -82.1 -35.6 -82.1 -79.5 s 36.8 -79.5 82.1 -79.5 h 75.6 c -13 -14.1 -20.9 -32.6 -20.9 -53 H 87.1 c -45.3 0 -82.1 35.6 -82.1 79.5 v 106 c 0 43.9 36.8 79.5 82.1 79.5 h 273.8 c 45.3 0 82.1 -35.6 82.1 -79.5 V 243.5 C 443 199.6 406.2 164 360.9 164 z M 141.9 243.5 c -30.2 0 -54.8 23.8 -54.8 53 s 24.6 53 54.8 53 h 164.3 c 30.2 0 54.8 -23.8 54.8 -53 s -24.6 -53 -54.8 -53 h -27.4 H 141.9 z"/>
</svg>
